<?xml version="1.0" standalone="no"?>
<!DOCTYPE svg PUBLIC "-//W3C//DTD SVG 20010904//EN"
 "http://www.w3.org/TR/2001/REC-SVG-20010904/DTD/svg10.dtd">
<svg version="1.0" xmlns="http://www.w3.org/2000/svg"
 width="1024.000000pt" height="1024.000000pt" viewBox="0 0 1024.000000 1024.000000"
 preserveAspectRatio="xMidYMid meet">
<metadata>
Created by potrace 1.14, written by Peter Selinger 2001-2017
</metadata>
<g transform="translate(0.000000,1024.000000) scale(0.100000,-0.100000)"
fill="#000000" stroke="none">
<path d="M4858 10236 c-1 -2 -48 -6 -103 -10 -55 -3 -140 -11 -190 -17 -49 -5
-103 -11 -120 -13 -32 -4 -117 -16 -150 -22 -11 -2 -47 -9 -80 -14 -33 -5 -71
-12 -85 -15 -14 -4 -36 -8 -50 -11 -610 -122 -1249 -389 -1775 -739 -184 -123
-202 -136 -325 -231 -300 -233 -626 -553 -845 -829 -22 -27 -44 -55 -50 -62
-86 -102 -287 -401 -397 -588 -150 -255 -307 -598 -408 -890 -69 -202 -140
-458 -174 -635 -2 -14 -9 -47 -15 -75 -6 -27 -12 -63 -15 -80 -2 -16 -9 -59
-14 -95 -17 -105 -21 -134 -27 -196 -4 -32 -8 -70 -10 -83 -26 -154 -26 -856
0 -1012 2 -13 6 -51 10 -84 3 -33 8 -76 10 -95 11 -75 27 -176 32 -205 3 -16
7 -39 8 -50 7 -43 16 -89 20 -94 2 -4 6 -24 9 -46 6 -38 48 -203 96 -379 25
-92 117 -355 166 -475 240 -581 573 -1104 989 -1550 120 -129 353 -354 424
-409 12 -9 34 -27 49 -40 313 -270 776 -560 1192 -747 302 -137 722 -273 1030
-334 95 -19 102 -21 220 -41 112 -19 142 -23 245 -35 206 -24 314 -29 590 -30
245 0 439 7 501 19 10 2 51 7 89 10 39 4 80 8 90 10 11 2 40 7 65 10 25 3 54
8 65 10 11 2 40 7 65 11 336 55 695 157 1055 300 33 13 85 35 115 48 158 71
196 88 212 97 10 6 68 36 130 69 272 141 594 351 803 523 136 111 183 152 259
221 119 108 282 273 369 372 39 44 73 82 77 85 3 3 24 28 45 55 22 28 42 52
45 55 16 15 118 151 196 260 193 270 385 607 509 895 21 50 42 94 47 99 4 6 8
16 8 24 0 7 8 32 19 55 99 222 249 755 287 1017 3 19 7 46 9 60 11 59 22 141
31 225 3 33 7 71 10 85 25 160 25 850 0 1000 -3 14 -7 52 -10 85 -8 77 -15
133 -21 165 -3 14 -7 43 -10 65 -3 22 -8 51 -11 65 -2 14 -6 36 -9 50 -5 23
-20 101 -31 160 -46 233 -187 678 -288 905 -12 28 -29 66 -36 85 -26 66 -217
435 -280 540 -289 479 -704 970 -1090 1286 -19 16 -44 37 -55 47 -32 30 -314
240 -380 284 -229 152 -378 238 -610 353 -208 103 -246 119 -459 201 -119 46
-414 142 -468 153 -13 3 -68 16 -123 30 -100 25 -219 50 -285 61 -19 3 -46 8
-60 10 -46 10 -65 13 -120 20 -30 4 -62 9 -70 10 -26 5 -113 15 -185 21 -38 4
-81 8 -95 10 -29 5 -657 14 -662 10z"/>
</g>
</svg>
